<?xml version="1.0" standalone="no"?>
<!DOCTYPE svg PUBLIC "-//W3C//DTD SVG 20010904//EN"
 "http://www.w3.org/TR/2001/REC-SVG-20010904/DTD/svg10.dtd">
<svg version="1.0" xmlns="http://www.w3.org/2000/svg"
 width="512.000000pt" height="512.000000pt" viewBox="0 0 512.000000 512.000000"
 preserveAspectRatio="xMidYMid meet">
<metadata>
Created by potrace 1.11, written by Peter Selinger 2001-2013
</metadata>
<g transform="translate(0.000000,512.000000) scale(0.100000,-0.100000)"
fill="#000000" stroke="none">
<path d="M1455 3668 c-145 -26 -279 -82 -390 -164 -187 -136 -307 -325 -374
-590 -30 -118 -36 -183 -35 -359 0 -181 6 -232 35 -354 97 -396 357 -659 729
-739 78 -16 298 -23 380 -10 248 37 444 149 577 328 71 96 133 236 149 340 3
19 9 54 13 77 5 22 9 119 10 215 l2 174 -431 0 -431 0 3 -136 3 -135 265 0
265 -1 -3 -64 c-6 -133 -73 -274 -173 -365 -107 -97 -231 -139 -409 -140 -187
0 -316 51 -440 175 -149 148 -222 364 -221 650 1 509 282 834 696 807 234 -16
409 -139 495 -349 13 -32 31 -60 39 -62 9 -2 85 -4 169 -4 176 1 166 -7 128
109 -99 314 -351 530 -691 593 -88 16 -281 18 -360 4z"/>
<path d="M2970 2561 l0 -1091 165 0 165 0 0 383 0 383 278 1 c350 2 431 15
582 93 170 89 299 265 326 447 3 21 7 49 10 63 6 30 5 183 -1 228 -29 215
-152 397 -331 489 -71 36 -126 56 -219 79 -16 4 -243 9 -502 11 l-473 4 0
-1090z m874 794 c224 -42 337 -195 323 -438 -6 -109 -26 -175 -73 -240 -63
-86 -167 -142 -288 -154 -34 -4 -160 -7 -281 -7 l-220 -1 -3 428 -2 427 234 0
c164 0 257 -4 310 -15z"/>
</g>
</svg>
