<?xml version="1.0" standalone="no"?>
<!DOCTYPE svg PUBLIC "-//W3C//DTD SVG 20010904//EN"
 "http://www.w3.org/TR/2001/REC-SVG-20010904/DTD/svg10.dtd">
<svg version="1.0" xmlns="http://www.w3.org/2000/svg"
 width="512.000000pt" height="512.000000pt" viewBox="0 0 512.000000 512.000000"
 preserveAspectRatio="xMidYMid meet">
<metadata>
Created by potrace 1.11, written by Peter Selinger 2001-2013
</metadata>
<g transform="translate(0.000000,512.000000) scale(0.100000,-0.100000)"
fill="#000000" stroke="none">
<path d="M2110 4863 c-37 -7 -46 -20 -10 -15 17 2 33 8 36 13 3 5 4 8 2 8 -2
-1 -14 -4 -28 -6z"/>
<path d="M1825 4830 c-16 -7 -17 -9 -3 -9 9 -1 20 4 23 9 7 11 7 11 -20 0z"/>
<path d="M1912 4818 c-35 -11 -61 -22 -59 -24 2 -2 33 4 68 15 35 11 73 21 84
24 16 4 15 5 -5 5 -14 0 -53 -9 -88 -20z"/>
<path d="M1947 4803 c-32 -9 -56 -17 -54 -20 6 -6 100 18 112 28 5 5 7 9 5 8
-3 -1 -31 -8 -63 -16z"/>
<path d="M1770 4770 c-33 -14 -39 -19 -22 -19 13 -1 21 -5 18 -10 -4 -5 4 -7
16 -3 21 5 21 6 2 13 -20 7 -22 6 46 32 13 5 13 5 0 6 -8 0 -35 -9 -60 -19z"/>
<path d="M1310 4770 c-9 -6 -10 -10 -3 -10 6 0 15 5 18 10 8 12 4 12 -15 0z"/>
<path d="M1630 4766 c4 -4 16 -4 26 2 16 9 14 10 -8 9 -15 -1 -23 -6 -18 -11z"/>
<path d="M1483 4750 c-13 -5 -23 -11 -23 -14 0 -7 40 6 46 15 6 10 6 10 -23
-1z"/>
<path d="M1920 4750 c8 -5 20 -10 25 -10 6 0 3 5 -5 10 -8 5 -19 10 -25 10 -5
0 -3 -5 5 -10z"/>
<path d="M1553 4735 c0 -8 4 -12 9 -9 5 3 6 10 3 15 -9 13 -12 11 -12 -6z"/>
<path d="M1654 4741 c5 -7 -11 -20 -46 -35 -86 -38 -91 -38 -119 -12 -23 21
-28 22 -50 9 -24 -14 -24 -14 -1 -8 14 4 33 0 48 -10 28 -18 24 -36 -6 -30
-12 2 -18 0 -16 -4 3 -4 -22 -21 -54 -37 -33 -16 -60 -32 -60 -36 0 -10 11 -5
145 63 113 57 154 71 139 47 -5 -7 -3 -8 5 -4 7 5 10 11 7 14 -3 3 1 13 10 23
12 13 12 19 3 25 -8 4 -10 3 -5 -5z"/>
<path d="M1710 4740 c0 -5 5 -10 11 -10 5 0 7 5 4 10 -3 6 -8 10 -11 10 -2 0
-4 -4 -4 -10z"/>
<path d="M1530 4731 c0 -7 -5 -9 -12 -5 -7 5 -8 3 -3 -5 5 -9 10 -10 18 -2 6
6 8 14 4 18 -4 3 -7 1 -7 -6z"/>
<path d="M1869 4727 c4 -4 18 -3 32 2 23 9 22 9 -8 8 -18 -1 -28 -6 -24 -10z"/>
<path d="M1550 4705 c-14 -8 -20 -14 -14 -15 5 0 19 7 30 15 24 18 16 19 -16
0z"/>
<path d="M1698 4713 c7 -3 16 -2 19 1 4 3 -2 6 -13 5 -11 0 -14 -3 -6 -6z"/>
<path d="M1315 4691 c-3 -5 -2 -12 3 -15 5 -3 9 1 9 9 0 17 -3 19 -12 6z"/>
<path d="M1350 4670 c-9 -6 -10 -10 -3 -10 6 0 15 5 18 10 8 12 4 12 -15 0z"/>
<path d="M1446 4671 c-4 -5 3 -7 14 -4 23 6 26 13 6 13 -8 0 -17 -4 -20 -9z"/>
<path d="M1445 4605 c-50 -28 -87 -42 -99 -39 -12 4 -17 2 -14 -7 3 -8 -5 -21
-16 -31 -12 -10 -16 -17 -10 -18 6 0 17 6 23 14 7 8 33 26 59 39 147 77 165
88 146 86 -5 0 -45 -20 -89 -44z"/>
<path d="M1060 4610 c-31 -26 -32 -28 -8 -17 14 6 31 20 37 29 15 25 11 23
-29 -12z"/>
<path d="M1294 4624 c-18 -14 -18 -15 4 -4 12 6 22 13 22 15 0 8 -5 6 -26 -11z"/>
<path d="M1567 4608 c-5 -16 -3 -16 27 -1 43 21 43 23 8 20 -20 -1 -33 -8 -35
-19z"/>
<path d="M1242 4604 c-12 -8 -19 -20 -16 -26 5 -7 1 -9 -9 -5 -16 6 -34 -9
-24 -19 8 -8 47 15 44 26 -1 5 7 16 18 24 26 20 16 20 -13 0z"/>
<path d="M1302 4601 c-11 -6 -9 -9 6 -13 15 -4 19 -2 15 8 -6 16 -4 16 -21 5z"/>
<path d="M1151 4580 c-13 -11 -19 -20 -14 -20 6 0 18 9 28 20 23 25 17 25 -14
0z"/>
<path d="M1252 4560 c-18 -11 -35 -27 -38 -35 -4 -8 -10 -13 -14 -10 -5 3 -12
0 -16 -6 -4 -8 -3 -9 4 -5 7 4 12 3 12 -1 0 -5 -15 -17 -32 -27 -18 -11 -43
-28 -55 -39 -13 -11 -23 -17 -23 -13 0 4 -12 -6 -26 -23 -25 -30 -53 -44 -38
-18 5 8 2 8 -9 -2 -19 -15 -22 -8 -7 19 7 12 17 17 28 14 13 -5 14 -4 3 4 -17
12 -7 44 11 37 7 -2 27 8 45 23 27 23 29 28 13 28 -11 0 -20 -4 -20 -8 0 -4
-7 -8 -15 -8 -8 0 -15 -4 -15 -10 0 -5 -11 -10 -24 -10 -14 0 -28 -5 -31 -10
-4 -6 -11 -7 -17 -4 -7 5 -8 2 -3 -5 5 -9 10 -10 18 -2 6 6 16 11 21 11 27 0
-17 -22 -48 -24 -36 -3 -45 -8 -102 -59 -17 -15 -40 -34 -50 -42 -11 -7 -16
-16 -13 -19 6 -6 24 9 92 73 30 29 37 32 35 16 -2 -11 -7 -26 -11 -32 -5 -7
-6 -13 -2 -13 3 0 0 -10 -6 -22 -11 -21 -11 -22 4 -9 10 7 17 10 17 5 0 -5 5
-1 11 9 6 9 14 15 19 12 4 -3 7 3 5 12 -2 10 -4 21 -4 25 -1 4 -9 4 -18 1 -16
-6 -16 -5 -5 10 20 24 42 10 42 -29 0 -23 -6 -38 -20 -46 -24 -15 -26 -38 -4
-38 8 0 13 4 10 9 -6 8 34 44 128 116 81 63 78 61 72 31 -3 -15 -1 -24 5 -21
5 4 7 11 4 16 -4 5 -1 10 4 10 6 1 16 2 21 3 6 0 9 6 8 11 0 6 -11 9 -22 7
-21 -4 -21 -4 -1 12 11 8 26 16 33 16 7 0 30 12 50 27 20 15 39 28 41 30 2 2
1 6 -2 9 -4 4 -14 1 -24 -7 -15 -12 -16 -12 -10 4 8 21 9 21 -31 -3z m-282
-184 c0 -2 -8 -10 -17 -17 -16 -13 -17 -12 -4 4 13 16 21 21 21 13z"/>
<path d="M1100 4550 c-9 -6 -10 -10 -3 -10 6 0 15 5 18 10 8 12 4 12 -15 0z"/>
<path d="M1140 4530 c-9 -6 -10 -10 -3 -10 6 0 15 5 18 10 8 12 4 12 -15 0z"/>
<path d="M1069 4513 c-13 -16 -12 -17 4 -4 9 7 17 15 17 17 0 8 -8 3 -21 -13z"/>
<path d="M1410 4500 c-9 -6 -10 -10 -3 -10 6 0 15 5 18 10 8 12 4 12 -15 0z"/>
<path d="M1130 4479 c-17 -13 -18 -17 -5 -10 33 17 51 31 40 31 -5 0 -21 -10
-35 -21z"/>
<path d="M1304 4476 c-3 -9 -10 -13 -16 -10 -9 6 -88 -41 -88 -52 0 -6 13 1
52 28 14 10 33 16 40 13 18 -7 44 20 28 30 -5 3 -13 -1 -16 -9z"/>
<path d="M869 4453 c-13 -16 -12 -17 4 -4 9 7 17 15 17 17 0 8 -8 3 -21 -13z"/>
<path d="M4140 4406 c0 -2 7 -7 16 -10 8 -3 12 -2 9 4 -6 10 -25 14 -25 6z"/>
<path d="M1220 4390 c-13 -8 -12 -10 3 -10 9 0 17 5 17 10 0 12 -1 12 -20 0z"/>
<path d="M1090 4381 c0 -5 -10 -11 -22 -14 -12 -4 -20 -9 -16 -12 8 -8 58 13
58 25 0 5 -4 10 -10 10 -5 0 -10 -4 -10 -9z"/>
<path d="M1120 4363 c-47 -32 -52 -41 -30 -48 12 -4 17 -11 13 -18 -4 -7 -9
-21 -10 -31 -3 -19 -3 -19 17 -1 21 19 27 30 10 20 -14 -9 -12 8 3 24 8 10 8
12 0 7 -27 -15 -21 14 8 38 34 29 27 35 -11 9z"/>
<path d="M4090 4366 c0 -2 33 -28 73 -59 94 -73 201 -177 181 -177 -9 0 -48
31 -88 69 -39 37 -82 74 -96 80 l-25 12 25 -21 c134 -116 149 -133 110 -125
-26 5 -37 -31 -17 -53 27 -30 38 -69 22 -82 -10 -8 -23 1 -61 44 -26 31 -50
54 -52 51 -2 -2 -20 8 -39 22 -18 14 -36 24 -38 21 -3 -3 9 -16 27 -29 88 -67
128 -100 128 -108 0 -5 -14 4 -32 20 -19 18 -34 26 -38 20 -4 -7 -13 -6 -26 4
-42 32 -33 12 16 -32 28 -27 52 -55 53 -63 2 -8 6 -20 10 -27 5 -7 -1 -16 -13
-23 -11 -6 -20 -7 -20 -2 0 16 -60 73 -70 67 -15 -9 -12 -18 13 -45 12 -14 23
-36 22 -50 0 -14 4 -28 10 -32 5 -4 0 -6 -13 -5 -12 0 -22 4 -22 8 0 4 -8 10
-17 13 -10 4 11 -20 46 -53 53 -49 62 -61 48 -67 -14 -5 -15 -9 -6 -20 7 -8 7
-14 1 -14 -5 0 -15 7 -22 15 -9 11 -10 15 0 15 6 0 10 8 8 18 -2 9 -10 17 -18
17 -19 0 -15 -45 6 -61 8 -6 14 -17 14 -25 0 -11 2 -11 8 -1 6 8 15 0 30 -27
28 -49 29 -71 2 -64 -11 3 -18 9 -15 13 7 12 -6 70 -15 65 -4 -3 -13 2 -20 10
-14 17 -35 20 -24 4 3 -6 1 -15 -6 -19 -7 -4 -10 -15 -7 -24 9 -22 28 -20 21
2 -5 16 -5 16 6 -1 6 -9 8 -22 5 -27 -7 -12 15 -44 33 -48 8 -1 11 2 7 8 -3 5
-2 10 2 10 5 0 14 -12 21 -27 8 -21 10 -22 6 -5 -5 21 -4 23 15 13 12 -7 21
-13 21 -14 1 -15 29 -77 30 -65 0 9 -9 37 -20 63 -23 53 -24 59 -10 50 19 -12
50 -84 50 -116 0 -17 14 -71 30 -121 17 -49 28 -93 25 -98 -3 -4 2 -23 10 -43
16 -39 23 -71 30 -142 15 -150 20 -184 30 -193 3 -3 5 0 5 7 0 7 5 9 12 5 8
-5 9 -2 4 12 -4 10 -10 43 -13 71 -5 43 -3 54 11 59 12 4 14 14 11 37 -3 17
-8 34 -11 38 -2 4 0 10 5 14 14 8 24 -77 16 -141 -4 -33 -3 -60 4 -67 16 -20
21 -65 22 -197 1 -515 -169 -993 -500 -1408 -98 -123 -293 -322 -315 -322 -9
0 -16 -4 -16 -9 0 -25 -299 -197 -444 -256 -96 -38 -119 -51 -71 -39 17 4 27
3 23 -1 -4 -4 -20 -8 -35 -10 -15 -1 -39 -7 -53 -13 -14 -5 -30 -7 -37 -5 -6
2 -30 -7 -52 -21 -23 -15 -63 -29 -89 -33 -26 -3 -51 -9 -57 -13 -5 -5 -27 -7
-48 -6 -21 1 -41 -3 -44 -7 -3 -5 -9 -3 -14 4 -8 12 -11 12 -18 0 -10 -16 -49
-21 -183 -23 -49 -1 -88 -5 -88 -9 0 -4 -15 -3 -32 2 -35 10 -68 15 -158 24
-55 5 -95 11 -137 20 -13 3 -23 1 -23 -5 0 -11 -39 -14 -64 -4 -9 3 -13 10
-10 15 3 5 -7 9 -23 10 -76 3 -101 7 -130 22 -18 10 -41 17 -53 17 -11 0 -31
7 -44 15 -28 19 -148 66 -142 57 6 -11 -61 -8 -71 2 -4 5 -3 6 4 3 6 -4 22 -2
35 3 18 8 19 10 3 7 -25 -5 -62 27 -44 39 7 4 10 3 6 -3 -4 -6 0 -13 8 -17 8
-3 17 -1 20 4 8 13 -53 43 -68 33 -8 -4 -7 -1 2 10 7 9 12 17 10 18 -2 0 -14
2 -26 3 -12 1 -40 15 -63 30 -23 15 -47 25 -54 23 -7 -3 -19 -1 -27 5 -11 8
-10 9 4 4 11 -3 16 -2 12 4 -3 6 -11 10 -17 10 -6 0 -27 12 -47 27 -22 16 -30
20 -21 8 14 -17 14 -18 -8 -6 -12 7 -20 16 -17 21 3 6 -1 7 -10 4 -10 -4 -15
-2 -13 7 2 7 -2 13 -9 14 -16 0 -73 43 -73 55 0 5 12 -2 26 -17 14 -14 28 -22
32 -19 3 4 -6 19 -21 33 -20 21 -30 24 -38 16 -9 -9 -19 -7 -42 10 -46 34
-289 280 -317 321 -53 78 -102 136 -111 131 -5 -4 -6 1 -3 10 5 11 2 14 -10 9
-11 -4 -16 -1 -16 11 0 10 5 13 12 9 6 -4 -16 44 -49 108 -33 63 -66 131 -72
151 -7 20 -17 40 -23 43 -12 7 -12 8 16 -81 9 -27 12 -45 7 -40 -15 17 -87
206 -131 345 -24 74 -47 139 -51 144 -5 6 -9 21 -8 35 1 26 1 26 14 -4 10 -20
14 -24 15 -12 0 11 4 15 12 11 8 -5 9 -2 5 10 -4 10 -7 27 -7 37 0 11 -3 18
-8 15 -4 -2 -6 14 -5 37 2 39 1 40 -7 12 -8 -27 -9 -26 -6 13 3 30 1 40 -7 35
-8 -5 -8 -2 0 8 8 9 9 19 3 25 -5 5 -11 38 -14 74 -2 36 -5 68 -5 72 -1 4 -8
5 -16 2 -11 -5 -13 -2 -9 10 3 9 2 16 -4 16 -6 0 -13 -6 -15 -12 -4 -8 -6 -7
-6 4 -1 9 5 18 12 21 9 4 9 7 0 18 -7 7 -12 24 -12 38 1 25 2 24 9 -4 5 -21 7
-10 6 37 -2 40 2 70 8 73 7 3 7 7 -1 11 -8 3 -9 13 -4 27 9 25 1 62 -14 62 -5
0 -16 -4 -24 -9 -11 -7 -12 -6 -5 5 4 8 8 28 9 46 0 17 3 34 6 38 4 3 5 23 3
43 -3 27 -1 32 5 17 l8 -20 5 20 c2 11 0 27 -5 35 -5 10 -1 44 12 94 11 44 18
83 15 88 -3 4 0 8 5 8 6 0 10 3 9 8 -3 7 6 32 63 185 16 43 27 83 23 89 -4 7
-3 8 4 4 7 -4 12 -3 12 3 0 5 -3 11 -7 14 -5 2 -2 2 5 1 7 -2 18 8 24 21 6 14
15 25 21 25 5 0 6 7 3 16 -3 8 -2 13 3 10 13 -8 28 15 34 50 3 18 17 52 31 76
30 52 33 66 9 47 -9 -8 -3 7 15 33 34 50 39 63 20 52 -8 -4 -10 -3 -5 2 5 5
14 9 20 9 5 0 12 6 15 14 3 8 0 11 -7 7 -6 -4 -1 9 10 29 12 20 24 34 27 31 3
-3 -1 -14 -8 -23 -7 -10 6 2 29 27 22 25 41 41 41 36 0 -5 7 -3 15 4 13 11 18
11 28 0 7 -7 7 -10 1 -7 -6 4 -20 0 -30 -8 -10 -8 -14 -15 -9 -15 6 0 16 5 23
12 7 7 12 8 12 4 0 -5 6 -3 14 4 8 6 12 19 9 27 -4 9 -2 14 3 10 12 -7 23 1
44 27 13 18 13 19 0 11 -9 -5 -7 1 5 16 27 32 37 39 50 32 5 -4 7 -2 2 2 -4 5
7 24 25 42 35 36 50 87 17 57 -10 -9 -16 -21 -13 -26 3 -4 0 -7 -8 -6 -7 2
-12 -3 -10 -10 1 -6 -4 -11 -10 -10 -7 2 -12 -3 -10 -10 1 -8 -1 -11 -6 -8
-13 8 -52 -22 -52 -40 0 -8 -5 -14 -11 -14 -6 0 -8 7 -4 18 5 14 4 15 -6 5
-10 -10 -10 -16 -2 -24 9 -9 6 -17 -13 -31 -13 -11 -21 -25 -17 -31 3 -7 3 -9
-2 -5 -4 4 -17 2 -29 -4 -20 -10 -20 -10 2 14 12 13 22 28 22 34 0 5 -4 5 -8
-1 -13 -18 -56 -50 -47 -36 6 11 4 13 -7 8 -22 -8 -29 2 -17 24 11 21 0 26
-18 8 -8 -8 -13 -7 -18 2 -5 7 -4 10 2 6 6 -4 16 0 23 8 7 8 18 15 26 15 7 0
16 4 19 10 3 6 -1 7 -12 4 -17 -5 -17 -5 0 6 9 6 16 14 14 18 -2 4 14 22 35
41 27 24 36 28 32 15 -5 -13 2 -10 23 11 16 17 28 32 26 34 -2 3 -9 -1 -15 -7
-27 -27 -30 -10 -3 18 16 17 25 30 20 30 -5 0 2 11 15 25 30 32 20 32 -30 0
-39 -25 -65 -57 -53 -68 3 -4 -3 -5 -15 -2 -16 3 -19 -1 -14 -17 3 -14 1 -19
-6 -14 -7 4 -12 2 -12 -3 0 -6 -7 -11 -15 -11 -20 0 -19 10 2 27 11 9 12 12 3
7 -25 -12 -50 -36 -50 -48 0 -6 4 -4 10 4 5 8 13 11 17 6 9 -9 -26 -38 -38
-31 -4 3 -26 -18 -49 -45 -23 -28 -36 -48 -28 -45 8 3 22 19 32 36 10 17 21
28 24 25 3 -3 14 1 24 11 32 29 19 0 -21 -45 -20 -24 -47 -44 -60 -45 -12 -1
-34 -17 -49 -37 -14 -19 -38 -47 -52 -62 -15 -14 -27 -33 -27 -42 0 -13 4 -13
19 4 11 11 16 26 12 33 -4 6 -4 9 1 5 9 -9 27 9 54 52 19 31 57 53 48 27 -3
-7 -10 -11 -16 -10 -6 2 -10 -1 -8 -6 1 -5 -22 -38 -51 -75 -29 -37 -62 -83
-74 -104 l-21 -37 32 35 c29 32 31 33 25 10 -3 -14 -14 -34 -24 -45 -10 -11
-15 -26 -12 -34 3 -9 0 -11 -8 -6 -8 5 -11 3 -8 -6 6 -14 -88 -201 -104 -207
-4 -2 -5 -9 -1 -15 4 -6 0 -8 -10 -4 -11 4 -21 -1 -28 -15 -8 -14 -13 -17 -19
-9 -14 23 -63 -74 -109 -215 -15 -46 -31 -81 -35 -77 -4 5 -6 -3 -4 -17 2 -17
-1 -24 -10 -22 -8 1 -11 -2 -7 -8 3 -6 10 -8 14 -5 5 2 0 -29 -10 -70 -18 -77
-52 -320 -49 -352 1 -10 1 -22 0 -28 -1 -5 -1 -36 0 -69 1 -40 -3 -61 -12 -67
-10 -7 -10 -9 0 -9 6 0 12 -5 12 -11 0 -5 -5 -7 -12 -3 -8 5 -8 3 -2 -7 5 -8
10 -41 10 -74 2 -87 3 -99 10 -92 9 9 7 303 -2 318 -5 9 -2 10 9 6 18 -7 20
13 2 25 -6 4 -4 39 4 95 8 48 16 111 18 138 3 28 14 86 25 130 11 44 21 87 22
95 2 8 10 14 19 14 12 -1 13 2 6 15 -8 12 -1 45 26 126 44 133 56 154 88 151
20 -2 24 1 20 18 -4 18 -3 19 6 5 8 -12 4 -31 -18 -75 -15 -33 -41 -97 -56
-144 -15 -47 -33 -92 -40 -100 -19 -25 -35 -90 -22 -90 7 0 5 -5 -3 -10 -8 -5
-11 -10 -6 -10 5 0 2 -7 -5 -16 -8 -10 -13 -38 -12 -75 1 -32 -2 -61 -8 -64
-5 -4 -7 -11 -4 -16 4 -5 2 -9 -4 -9 -5 0 -13 -29 -16 -65 -4 -36 -11 -65 -15
-65 -5 0 -4 -16 1 -35 6 -19 7 -40 3 -47 -4 -7 -3 -8 4 -4 7 4 12 24 13 44 0
20 4 46 9 57 6 15 8 9 8 -25 0 -47 -22 -95 -38 -85 -6 4 -10 -27 -11 -77 0
-46 -2 -94 -4 -108 -1 -14 3 -37 10 -52 7 -15 19 -75 26 -134 12 -99 14 -105
25 -78 12 28 12 27 19 -30 4 -32 11 -53 15 -46 5 7 9 2 12 -14 4 -22 3 -24 -9
-14 -12 10 -13 7 -8 -15 5 -16 3 -27 -3 -27 -6 0 -13 10 -16 23 -2 12 -3 -3 0
-33 5 -68 8 -82 17 -97 4 -6 3 -14 -2 -17 -10 -6 -8 -59 3 -94 4 -12 12 -19
18 -16 7 5 9 -3 5 -22 -3 -16 -3 -22 0 -14 4 10 12 3 25 -25 10 -22 16 -32 14
-23 -3 9 -7 34 -10 55 l-6 38 11 -34 c6 -19 19 -41 29 -50 21 -18 53 -91 40
-91 -5 0 -14 17 -20 38 -15 44 -34 69 -21 26 11 -37 66 -173 97 -242 13 -29
24 -54 24 -57 0 -2 19 -34 41 -70 23 -36 43 -77 45 -91 1 -14 23 -56 48 -93
45 -67 56 -88 36 -76 -5 3 -10 1 -10 -5 0 -6 7 -10 15 -8 9 2 21 -8 28 -22 8
-14 18 -24 24 -23 6 1 14 -4 17 -13 4 -10 1 -13 -7 -9 -6 4 -3 -1 7 -9 11 -9
23 -16 28 -16 4 0 8 -5 8 -11 0 -5 -6 -7 -12 -3 -8 4 -10 3 -5 -2 5 -5 12 -9
15 -9 4 -1 18 -7 31 -14 23 -13 22 -11 -5 25 -16 22 -41 53 -56 69 -16 17 -28
35 -28 40 1 6 6 3 13 -6 94 -120 207 -241 221 -236 6 2 71 -56 144 -130 72
-74 126 -131 120 -127 -19 10 -2 -5 67 -61 103 -84 99 -84 -25 0 -96 65 -114
75 -70 36 75 -67 343 -232 356 -219 1 2 -31 24 -72 48 -108 64 -76 61 42 -4
54 -30 119 -62 144 -72 25 -10 47 -20 50 -24 3 -3 20 -12 37 -19 18 -7 31 -17
28 -21 -3 -5 4 -6 15 -3 12 3 20 0 20 -6 0 -7 5 -9 10 -6 5 3 10 1 10 -5 0 -6
4 -9 9 -5 5 3 16 -2 24 -10 17 -17 31 -20 22 -6 -6 11 60 5 84 -8 30 -17 147
-44 241 -57 25 -3 48 -11 51 -17 4 -5 14 -7 24 -4 9 4 14 3 10 -3 -3 -6 2 -10
12 -10 10 0 29 -3 42 -7 15 -4 22 -2 18 4 -3 5 0 10 8 10 8 0 15 -5 15 -11 0
-6 5 -4 10 4 5 8 10 11 10 5 0 -5 21 -11 47 -12 27 -1 93 -5 148 -8 181 -9
257 -3 490 39 11 2 38 7 60 11 116 19 145 27 139 37 -4 6 -2 8 3 5 6 -4 24 0
41 8 16 9 54 18 84 21 29 3 60 8 68 11 8 4 17 7 20 8 3 1 14 5 25 10 11 5 67
28 125 52 57 24 107 47 110 52 3 4 69 41 147 81 91 46 155 85 176 109 34 36
58 55 87 68 8 3 28 17 43 30 16 13 35 23 42 23 7 0 16 6 18 13 4 9 6 9 6 -1 1
-7 18 0 43 18 23 17 48 28 55 26 7 -3 19 4 26 14 8 11 16 18 18 17 2 -2 18 12
36 30 18 18 29 33 25 33 -5 0 -12 -4 -18 -10 -5 -5 -19 -11 -31 -13 -26 -4
-53 -25 -53 -42 0 -7 -7 -15 -15 -19 -8 -3 -15 -2 -15 2 0 14 59 66 77 68 10
2 19 8 21 14 2 6 14 16 26 21 11 5 30 15 41 22 43 25 211 232 197 241 -11 7
-85 -68 -76 -77 4 -3 -3 -5 -14 -2 -22 4 -58 -37 -47 -54 3 -5 0 -11 -5 -13
-6 -2 -13 -12 -14 -23 -2 -11 -9 -19 -16 -17 -6 1 -9 -2 -6 -7 3 -5 -2 -15
-11 -22 -14 -12 -16 -12 -8 0 5 10 4 12 -4 7 -6 -4 -9 -11 -7 -15 3 -3 -4 -7
-14 -7 -16 0 -17 3 -7 16 7 8 19 20 27 27 8 7 11 13 6 13 -9 0 42 62 105 125
21 22 39 48 39 57 0 10 6 15 13 13 6 -3 17 -1 22 3 10 7 33 61 40 96 2 10 12
30 22 44 22 32 152 284 153 296 0 5 6 17 14 25 39 43 182 476 201 606 4 28 9
59 11 70 3 11 7 36 10 55 2 19 7 46 9 60 2 14 7 52 10 85 13 122 16 139 25
145 6 4 8 28 6 56 -3 27 -8 81 -11 119 -8 103 -21 200 -36 278 -5 29 -12 66
-15 82 -2 17 -11 53 -19 80 -14 48 -15 48 -10 10 5 -43 3 -41 -34 52 -12 28
-21 59 -21 67 0 9 -4 16 -9 16 -5 0 -11 8 -15 18 -3 9 -10 27 -16 40 -6 15 -6
21 0 17 16 -10 12 9 -15 66 -26 58 -64 112 -65 92 0 -7 11 -38 25 -69 35 -78
32 -79 -19 -4 -24 36 -54 74 -66 85 l-23 20 7 -30 c5 -22 4 -26 -4 -15 -5 8
-10 24 -10 35 0 21 -57 120 -97 168 -13 16 -21 33 -17 38 3 5 1 9 -4 9 -13 0
-152 187 -152 205 0 18 -113 125 -185 174 -11 8 2 -8 28 -34 27 -26 47 -49 45
-51 -2 -1 -24 13 -48 33 -58 45 -226 163 -234 163 -3 0 -6 -2 -6 -4z m-3215
-66 c-3 -5 -12 -10 -18 -10 -7 0 -6 4 3 10 19 12 23 12 15 0z m-27 -226 c-1
-5 -9 -9 -16 -10 -10 -2 -11 1 -1 12 12 14 24 13 17 -2z m-158 2 c0 -2 -8 -10
-17 -17 -16 -13 -17 -12 -4 4 13 16 21 21 21 13z m-35 -72 c-17 -18 -31 -18
-16 -1 6 8 8 17 4 21 -4 4 0 4 10 1 14 -6 14 -9 2 -21z m3685 -97 c0 -5 -11 5
-25 21 -14 17 -25 34 -25 38 0 11 49 -48 50 -59z m-3703 22 c-8 -13 -13 -15
-18 -7 -10 15 -4 25 15 25 11 0 12 -4 3 -18z m-102 -100 c-4 -12 -8 -27 -9
-35 -1 -7 -9 -21 -18 -31 -9 -10 -25 -37 -37 -60 -12 -24 -24 -43 -27 -43 -3
0 -3 3 -1 8 2 4 23 46 47 95 42 85 58 109 45 66z m3912 -671 c-3 -8 -6 -5 -6
6 -1 11 2 17 5 13 3 -3 4 -12 1 -19z m-4114 -419 c-6 -6 -7 3 -4 23 4 28 6 29
9 9 2 -13 0 -27 -5 -32z m-173 -208 c0 -47 -10 -33 -15 20 -3 30 -1 39 5 29 5
-8 10 -30 10 -49z m4 -86 c-4 -8 -8 -15 -10 -15 -2 0 -4 7 -4 15 0 8 4 15 10
15 5 0 7 -7 4 -15z m-7 -57 c-3 -7 -5 -2 -5 12 0 14 2 19 5 13 2 -7 2 -19 0
-25z m270 -120 c-3 -8 -6 -5 -6 6 -1 11 2 17 5 13 3 -3 4 -12 1 -19z m22 -203
c0 -13 -5 -8 -14 15 -18 46 -17 74 0 35 8 -16 14 -39 14 -50z m-239 23 c0 -7
3 -24 7 -37 4 -18 3 -22 -6 -17 -7 5 -10 10 -7 13 2 3 1 16 -4 29 -6 15 -6 24
0 24 6 0 10 -6 10 -12z m32 -167 c2 -17 1 -28 -4 -25 -8 5 -12 54 -4 54 2 0 6
-13 8 -29z m388 -249 c0 -7 5 -10 10 -7 10 6 31 -35 44 -85 l6 -25 -12 25 c-7
14 -16 30 -20 35 -41 52 -52 71 -53 88 -2 19 -1 19 12 2 7 -11 13 -25 13 -33z
m-239 -94 c4 -15 5 -28 3 -28 -8 0 -41 81 -47 115 -5 24 -2 21 15 -15 11 -24
24 -57 29 -72z m49 -104 c18 -30 31 -57 28 -59 -2 -2 -18 23 -36 56 -18 32
-31 59 -28 59 2 0 19 -25 36 -56z m305 17 c3 -5 2 -12 -3 -15 -5 -3 -9 1 -9 9
0 17 3 19 12 6z m38 -61 c7 -29 1 -24 -17 11 -12 23 -12 28 -2 20 8 -7 16 -21
19 -31z m-253 -101 c0 -6 -4 -7 -10 -4 -5 3 -10 11 -10 16 0 6 5 7 10 4 6 -3
10 -11 10 -16z m425 -121 l40 -42 -42 34 c-35 30 -52 50 -40 50 2 0 21 -19 42
-42z m-345 -21 c4 1 16 -7 25 -17 10 -11 15 -20 10 -20 -4 0 -14 8 -22 18 -14
16 -14 16 -9 -2 9 -28 -15 -5 -37 36 l-18 33 22 -25 c12 -14 25 -24 29 -23z
m3940 -140 c0 -2 -10 -12 -21 -23 -22 -19 -22 -19 -8 4 12 19 29 30 29 19z
m-3400 -384 c0 -8 -38 17 -51 33 -9 11 -2 9 19 -6 17 -13 32 -25 32 -27z m638
17 c2 0 1 -4 -2 -9 -4 -5 0 -12 6 -15 7 -3 2 -3 -12 0 -14 4 -33 13 -42 21 -9
8 -21 12 -26 9 -6 -3 -12 1 -15 8 -5 13 0 13 41 0 26 -7 48 -14 50 -14z m-454
-162 c-3 -4 -10 -8 -15 -8 -6 0 -7 5 -4 10 5 9 -7 14 -26 12 -4 -1 -19 10 -33
23 -14 13 -26 22 -26 19 0 -3 -5 -2 -10 1 -6 4 -8 10 -5 15 3 5 32 -7 65 -27
32 -21 56 -41 54 -45z m126 -66 c-16 -6 -70 19 -70 31 0 6 -3 7 -6 4 -10 -9
-46 12 -39 23 3 5 33 -5 66 -23 32 -17 54 -34 49 -35z m837 -215 c7 0 10 -3 8
-7 -6 -10 -50 -4 -72 9 -15 10 -12 11 17 5 19 -4 40 -7 47 -7z"/>
<path d="M4260 4367 c0 -3 21 -22 47 -43 26 -21 44 -33 40 -27 -9 14 -87 77
-87 70z"/>
<path d="M744 4328 l-19 -23 23 19 c21 18 27 26 19 26 -2 0 -12 -10 -23 -22z"/>
<path d="M1005 4320 c-17 -18 -17 -20 -2 -14 9 3 17 10 17 15 0 5 5 9 11 9 5
0 7 -5 3 -12 -4 -7 -3 -8 5 -4 12 8 6 26 -8 26 -4 0 -16 -9 -26 -20z"/>
<path d="M915 4302 c13 -9 19 -35 6 -28 -5 4 -27 -14 -47 -39 -26 -30 -40 -41
-45 -33 -6 9 -10 8 -15 -5 -3 -9 -12 -17 -20 -17 -14 0 -15 -3 -18 -38 0 -11
-7 -27 -15 -36 -9 -10 -11 -20 -5 -26 6 -6 26 7 53 35 24 25 47 43 50 40 4 -2
30 19 57 48 27 28 37 41 22 28 -16 -14 -28 -19 -28 -12 0 7 -5 9 -11 5 -7 -4
-8 -9 -1 -13 6 -4 4 -11 -4 -19 -9 -8 -14 -9 -14 -2 0 6 -5 8 -11 4 -8 -4 -7
-9 2 -16 11 -8 10 -9 -3 -5 -9 3 -22 -1 -29 -9 -6 -8 -14 -12 -16 -10 -5 5 76
81 86 81 3 0 18 9 33 19 l28 18 -24 19 c-13 10 -28 19 -33 19 -4 0 -3 -4 2 -8z"/>
<path d="M1079 4308 c-5 -9 -5 -48 -1 -43 8 7 13 45 7 45 -3 0 -6 -1 -6 -2z"/>
<path d="M1027 4275 c-10 -14 -14 -25 -10 -25 4 0 16 12 26 25 10 14 14 25 10
25 -4 0 -16 -12 -26 -25z"/>
<path d="M890 4279 c0 -5 5 -7 10 -4 6 3 10 8 10 11 0 2 -4 4 -10 4 -5 0 -10
-5 -10 -11z"/>
<path d="M635 4210 c-4 -6 -10 -8 -15 -5 -5 3 -11 1 -14 -4 -8 -13 22 -7 36 7
7 7 9 12 6 12 -4 0 -10 -5 -13 -10z"/>
<path d="M4210 4185 c7 -8 17 -15 22 -15 6 0 5 7 -2 15 -7 8 -17 15 -22 15 -6
0 -5 -7 2 -15z"/>
<path d="M4190 4161 c0 -6 4 -13 10 -16 6 -3 7 1 4 9 -7 18 -14 21 -14 7z"/>
<path d="M558 4115 c-10 -13 -18 -27 -18 -31 0 -10 30 17 41 38 14 26 -3 22
-23 -7z"/>
<path d="M1019 4123 c-13 -16 -12 -17 4 -4 9 7 17 15 17 17 0 8 -8 3 -21 -13z"/>
<path d="M905 4121 c-3 -5 -2 -12 3 -15 5 -3 9 1 9 9 0 17 -3 19 -12 6z"/>
<path d="M4180 4110 c6 -11 17 -20 25 -20 20 0 19 10 -2 26 -26 19 -35 17 -23
-6z"/>
<path d="M930 4104 c0 -8 5 -12 10 -9 6 4 8 11 5 16 -9 14 -15 11 -15 -7z"/>
<path d="M4506 4092 c-2 -4 -1 -14 5 -22 6 -11 9 -12 9 -2 0 7 5 10 10 7 6 -4
7 -11 4 -17 -3 -5 7 -24 23 -41 48 -51 81 -101 76 -115 -3 -7 1 -11 9 -10 7 2
12 -5 12 -14 -1 -10 3 -15 9 -11 6 4 8 0 4 -10 -3 -9 -1 -19 5 -23 7 -4 8 -3
4 4 -4 7 -5 12 -2 12 2 0 14 -15 25 -33 11 -19 35 -51 52 -73 24 -30 30 -33
24 -15 -5 17 -4 21 5 16 9 -6 9 -3 1 14 -7 11 -14 21 -17 21 -3 0 -2 -4 1 -10
3 -5 4 -10 1 -10 -3 0 -10 10 -17 21 -8 16 -8 20 1 14 20 -12 -9 37 -34 58
-11 10 -14 16 -6 12 9 -4 8 0 -3 8 -10 9 -18 18 -17 21 0 4 -4 14 -10 24 -10
15 -11 15 -5 -3 3 -11 -26 14 -64 55 -67 71 -91 108 -53 79 9 -7 4 1 -12 19
-33 35 -33 35 -40 24z"/>
<path d="M4030 4036 c0 -3 9 -10 20 -16 11 -6 20 -8 20 -6 0 3 -9 10 -20 16
-11 6 -20 8 -20 6z"/>
<path d="M834 4005 c-10 -13 -21 -22 -26 -19 -10 6 -112 -94 -121 -118 -6 -16
-27 -26 -27 -13 0 8 94 110 100 108 4 -1 6 12 6 28 l0 31 -17 -24 c-10 -12
-16 -24 -14 -26 2 -2 -21 -34 -51 -70 -57 -70 -61 -77 -42 -88 8 -5 9 -2 5 10
-5 11 -3 15 5 10 7 -5 8 -3 3 6 -5 9 -4 11 3 6 8 -4 8 -15 2 -31 -5 -14 -7
-25 -4 -25 2 0 0 -9 -6 -20 -6 -11 -15 -18 -19 -15 -5 3 -12 -2 -15 -11 -3 -9
-2 -12 5 -8 6 3 -4 -21 -21 -55 -20 -38 -36 -58 -43 -54 -7 4 -6 -1 2 -11 12
-14 12 -19 2 -26 -8 -4 -11 -12 -8 -17 3 -4 -3 -26 -13 -47 -11 -26 -20 -34
-24 -25 -3 8 -4 5 -1 -7 4 -15 -1 -24 -17 -33 -13 -6 -15 -9 -5 -7 22 7 21 4
-3 -41 -11 -21 -20 -45 -20 -53 -1 -8 -7 -26 -16 -40 l-15 -25 7 25 c4 14 9
31 12 39 3 9 1 12 -6 7 -7 -4 -12 -13 -12 -20 0 -7 -9 -24 -19 -38 -21 -26
-75 -211 -68 -231 2 -7 8 5 12 26 4 20 11 40 16 42 4 3 6 13 3 23 -5 13 -4 14
4 3 8 -11 12 -10 20 5 5 11 7 25 5 32 -3 6 0 12 6 12 6 0 8 7 5 15 -4 8 -1 21
5 29 6 7 8 16 4 19 -3 4 -1 7 5 7 14 0 16 -26 3 -35 -6 -3 -9 -13 -8 -23 1
-24 -23 -82 -35 -82 -5 0 -6 -5 -2 -12 4 -7 3 -8 -4 -4 -7 4 -12 1 -12 -9 0
-9 4 -14 9 -10 6 3 7 -9 4 -30 -3 -20 -1 -41 6 -49 8 -10 10 -61 1 -61 -5 0
-2 -113 4 -123 4 -6 4 -18 0 -24 -4 -8 -3 -9 2 -5 5 5 10 27 11 50 1 23 5 60
8 82 4 22 7 47 7 55 -1 32 10 70 18 65 4 -3 6 3 3 14 -7 28 83 344 96 336 3
-2 7 7 7 20 2 29 117 268 149 311 14 18 25 36 25 39 0 4 23 40 51 81 31 44 49
80 45 89 -4 11 3 19 19 25 25 10 32 24 16 34 -5 3 -17 -5 -27 -19z m-23 -58
c-10 -9 -11 -8 -5 6 3 10 9 15 12 12 3 -3 0 -11 -7 -18z m-300 -554 c-12 -20
-14 -14 -5 12 4 9 9 14 11 11 3 -2 0 -13 -6 -23z"/>
<path d="M850 3938 c-30 -30 -49 -57 -46 -65 3 -8 2 -12 -3 -9 -11 7 -64 -61
-56 -73 3 -5 2 -11 -2 -13 -10 -4 -55 -75 -71 -111 -7 -16 -8 -26 -3 -23 4 3
14 19 21 36 7 16 16 28 20 25 9 -6 24 24 21 43 -1 7 5 15 14 18 8 3 15 12 15
20 0 8 5 14 11 14 5 0 7 5 4 10 -3 6 -1 10 4 10 6 0 11 6 11 14 0 8 7 16 15
20 8 3 15 12 15 20 0 7 7 16 15 20 9 3 12 12 8 22 -4 11 -2 15 4 11 6 -4 23 9
37 28 38 49 26 43 -34 -17z"/>
<path d="M410 3900 c-6 -11 -8 -20 -6 -20 3 0 10 9 16 20 6 11 8 20 6 20 -3 0
-10 -9 -16 -20z"/>
<path d="M4126 3879 c12 -13 20 -16 22 -9 3 7 -2 16 -9 21 -25 16 -32 9 -13
-12z"/>
<path d="M370 3838 c-16 -27 -29 -63 -17 -47 15 19 47 79 43 79 -4 0 -15 -15
-26 -32z"/>
<path d="M395 3749 c-9 -17 -14 -33 -11 -37 3 -3 6 0 6 7 0 7 4 9 10 6 6 -4 7
1 3 11 -4 12 -3 15 5 10 8 -5 10 -1 5 10 -5 13 -3 15 7 9 9 -5 11 -4 6 3 -10
17 -14 15 -31 -19z"/>
<path d="M297 3698 c-9 -31 -2 -33 11 -3 6 14 8 25 3 25 -5 0 -11 -10 -14 -22z"/>
<path d="M590 3710 c-9 -6 -10 -10 -3 -10 6 0 15 5 18 10 8 12 4 12 -15 0z"/>
<path d="M355 3670 c-4 -6 -10 -8 -15 -5 -4 3 -11 -2 -14 -11 -3 -8 -2 -12 4
-9 14 9 12 -5 -5 -39 -9 -16 -13 -31 -10 -34 3 -3 5 -1 5 4 0 6 8 19 18 30 11
11 21 32 24 47 6 28 3 34 -7 17z"/>
<path d="M370 3639 c0 -5 5 -7 10 -4 6 3 10 8 10 11 0 2 -4 4 -10 4 -5 0 -10
-5 -10 -11z"/>
<path d="M276 3585 c-3 -8 -1 -15 4 -15 6 0 10 7 10 15 0 8 -2 15 -4 15 -2 0
-6 -7 -10 -15z"/>
<path d="M516 3565 c-13 -19 -13 -23 -2 -19 8 3 16 14 19 25 7 25 3 24 -17 -6z"/>
<path d="M4190 3556 c0 -2 7 -9 15 -16 13 -11 14 -10 9 4 -5 14 -24 23 -24 12z"/>
<path d="M213 3472 c-16 -10 -35 -62 -23 -62 6 0 10 8 10 17 0 9 7 25 17 35
17 19 16 23 -4 10z"/>
<path d="M575 3459 c-4 -6 -5 -12 -2 -15 2 -3 7 2 10 11 7 17 1 20 -8 4z"/>
<path d="M4981 3444 c0 -11 3 -14 6 -6 3 7 2 16 -1 19 -3 4 -6 -2 -5 -13z"/>
<path d="M1790 3435 c-233 -49 -417 -189 -522 -400 -65 -129 -96 -284 -92
-460 2 -123 5 -146 29 -252 43 -188 157 -353 313 -456 59 -39 127 -68 222 -94
67 -18 266 -26 335 -12 28 5 59 11 71 13 78 15 196 71 271 129 l52 41 0 363 0
363 -285 0 c-220 0 -284 -3 -285 -12 -4 -46 -1 -220 4 -225 3 -3 72 -5 152 -5
l145 1 0 -179 0 -179 -57 -27 c-49 -24 -73 -28 -158 -31 -189 -5 -315 55 -409
195 -99 147 -126 416 -65 627 31 102 64 162 128 225 156 155 421 173 596 41
l53 -40 77 90 77 91 -24 25 c-35 37 -146 109 -208 133 -116 46 -295 61 -420
35z"/>
<path d="M247 3401 c-4 -17 -3 -21 5 -13 5 5 8 16 6 23 -3 8 -7 3 -11 -10z"/>
<path d="M2829 3333 c0 -107 0 -1535 0 -1546 1 -4 67 -6 149 -5 l147 3 0 295
0 295 190 6 c197 6 208 7 313 41 182 58 308 194 341 368 14 77 6 244 -15 305
-58 169 -177 259 -409 311 -16 4 -184 9 -372 11 l-343 5 -1 -89z m628 -163
c155 -27 227 -110 225 -260 -1 -163 -69 -247 -222 -279 -46 -9 -226 -16 -315
-12 -20 1 -20 7 -20 279 l0 277 24 5 c42 9 239 2 308 -10z"/>
<path d="M4324 3373 c9 -18 18 -33 20 -33 9 0 -8 41 -22 52 -13 11 -12 8 2
-19z"/>
<path d="M5011 3334 c0 -11 3 -14 6 -6 3 7 2 16 -1 19 -3 4 -6 -2 -5 -13z"/>
<path d="M229 3333 c-5 -72 -5 -83 2 -71 8 12 10 78 2 78 -1 0 -3 -3 -4 -7z"/>
<path d="M141 3284 c0 -11 3 -14 6 -6 3 7 2 16 -1 19 -3 4 -6 -2 -5 -13z"/>
<path d="M184 3203 c2 -9 -4 -29 -11 -45 -8 -15 -13 -36 -10 -46 3 -14 6 -12
15 9 15 37 22 88 12 94 -5 3 -7 -2 -6 -12z"/>
<path d="M125 3160 c-3 -5 -1 -10 4 -10 6 0 11 5 11 10 0 6 -2 10 -4 10 -3 0
-8 -4 -11 -10z"/>
<path d="M380 3015 c0 -8 2 -15 4 -15 2 0 6 7 10 15 3 8 1 15 -4 15 -6 0 -10
-7 -10 -15z"/>
<path d="M339 2978 c-6 -26 -5 -37 5 -41 14 -6 19 30 5 38 -5 4 -9 5 -10 3z"/>
<path d="M81 2911 c-8 -5 -9 -11 -3 -15 5 -3 12 1 16 9 6 17 6 18 -13 6z"/>
<path d="M4452 2758 c-3 -37 2 -35 12 5 3 15 3 27 -2 27 -4 0 -9 -14 -10 -32z"/>
<path d="M5083 2355 c0 -22 2 -30 4 -17 2 12 2 30 0 40 -3 9 -5 -1 -4 -23z"/>
<path d="M70 2331 c0 -6 4 -12 8 -15 5 -3 9 1 9 9 0 8 -4 15 -9 15 -4 0 -8 -4
-8 -9z"/>
<path d="M447 2195 c5 -52 32 -149 39 -142 4 4 -22 122 -36 167 -6 17 -7 9 -3
-25z"/>
<path d="M171 2174 c0 -11 3 -14 6 -6 3 7 2 16 -1 19 -3 4 -6 -2 -5 -13z"/>
<path d="M131 2154 c0 -16 4 -38 9 -49 6 -13 7 -5 3 25 -7 53 -13 66 -12 24z"/>
<path d="M150 2040 c0 -16 4 -30 8 -30 5 0 7 14 4 30 -2 17 -6 30 -8 30 -2 0
-4 -13 -4 -30z"/>
<path d="M61 2044 c0 -11 3 -14 6 -6 3 7 2 16 -1 19 -3 4 -6 -2 -5 -13z"/>
<path d="M497 2009 c4 -13 8 -18 11 -10 2 7 -1 18 -6 23 -8 8 -9 4 -5 -13z"/>
<path d="M510 1978 c0 -11 30 -78 35 -78 3 0 -2 17 -10 37 -15 36 -25 52 -25
41z"/>
<path d="M202 1830 c0 -14 2 -19 5 -12 2 6 2 18 0 25 -3 6 -5 1 -5 -13z"/>
<path d="M220 1799 c0 -5 5 -7 10 -4 6 3 10 8 10 11 0 2 -4 4 -10 4 -5 0 -10
-5 -10 -11z"/>
<path d="M236 1782 c-6 -10 33 -117 40 -109 2 1 -5 29 -15 61 -10 32 -21 54
-25 48z"/>
<path d="M4897 1644 c-4 -4 -7 -17 -7 -28 1 -19 1 -20 11 -3 11 19 8 43 -4 31z"/>
<path d="M371 1508 c-1 -15 4 -30 10 -33 17 -11 18 -2 4 30 l-13 30 -1 -27z"/>
<path d="M4842 1508 c-20 -26 -91 -162 -73 -141 10 12 22 19 26 15 5 -4 5 -1
1 6 -4 6 -3 12 2 12 5 0 20 27 35 60 26 60 28 70 9 48z"/>
<path d="M384 1438 c-4 -6 -3 -8 3 -5 6 4 14 0 17 -9 3 -8 2 -13 -3 -9 -5 3 0
-14 12 -37 11 -24 22 -50 23 -58 2 -8 8 -16 14 -18 5 -2 8 -8 5 -12 -3 -5 4
-14 15 -20 20 -11 21 -10 9 12 -7 13 -23 40 -35 60 -13 20 -19 40 -14 43 5 3
16 -7 24 -22 8 -15 15 -22 16 -15 0 17 -49 89 -66 96 -7 3 -16 0 -20 -6z"/>
<path d="M4743 1322 c-6 -4 -15 -19 -18 -35 -4 -15 -11 -25 -15 -22 -9 6 -54
-61 -62 -92 -4 -13 -4 -23 -2 -23 5 0 79 111 98 148 18 34 18 36 -1 24z"/>
<path d="M4454 988 l-19 -23 23 19 c21 18 27 26 19 26 -2 0 -12 -10 -23 -22z"/>
<path d="M1370 976 c0 -2 7 -9 15 -16 9 -7 15 -8 15 -2 0 5 -7 12 -15 16 -8 3
-15 4 -15 2z"/>
<path d="M817 904 c-9 -10 4 -34 19 -34 8 0 14 4 14 9 0 12 -26 32 -33 25z"/>
<path d="M830 851 c0 -5 19 -21 41 -36 23 -15 38 -22 35 -16 -4 6 -2 11 4 11
6 0 8 5 5 10 -3 6 -17 10 -31 10 -13 0 -24 4 -24 9 0 5 -7 11 -15 15 -8 3 -15
2 -15 -3z"/>
<path d="M930 766 c0 -8 82 -57 87 -52 4 3 12 -2 19 -12 7 -9 14 -12 14 -6 0
16 -28 38 -51 39 -10 1 -27 9 -37 18 -17 16 -32 22 -32 13z"/>
<path d="M1714 736 c11 -9 24 -16 30 -16 12 0 7 5 -24 19 -24 11 -24 11 -6 -3z"/>
<path d="M4270 735 c-7 -8 -16 -12 -21 -10 -5 3 -14 -3 -21 -14 -8 -14 -16
-17 -24 -10 -8 6 -16 4 -25 -8 -12 -14 -12 -16 0 -8 10 5 12 4 7 -4 -4 -6 -11
-9 -15 -6 -8 5 -75 -28 -126 -61 -28 -18 -29 -36 -2 -40 9 -1 15 1 12 5 -6 10
80 72 89 64 3 -3 6 -1 6 5 0 7 8 12 18 12 15 -1 14 -2 -3 -12 -11 -7 -21 -11
-23 -9 -2 1 -12 -8 -23 -20 -10 -12 -19 -19 -19 -14 0 4 -7 2 -15 -5 -18 -15
-20 -30 -3 -30 6 0 8 3 5 7 -4 4 5 12 20 19 31 13 200 154 185 154 -5 0 -15
-7 -22 -15z"/>
<path d="M1958 678 c14 -14 42 -20 42 -8 0 8 -25 20 -43 20 -8 0 -7 -4 1 -12z"/>
<path d="M2098 603 c7 -3 16 -2 19 1 4 3 -2 6 -13 5 -11 0 -14 -3 -6 -6z"/>
<path d="M3934 485 c-12 -8 -24 -11 -28 -8 -3 3 -6 2 -6 -4 0 -6 -9 -13 -20
-16 -11 -3 -20 -11 -19 -19 0 -10 2 -10 6 0 2 6 12 12 21 12 10 0 31 11 47 25
33 27 32 34 -1 10z"/>
<path d="M2346 137 c2 -7 15 -13 27 -14 12 0 16 1 9 4 -6 3 -10 9 -6 14 3 5
-4 9 -15 9 -13 0 -18 -5 -15 -13z"/>
<path d="M2268 133 c6 -2 18 -2 25 0 6 3 1 5 -13 5 -14 0 -19 -2 -12 -5z"/>
<path d="M2318 123 c7 -3 16 -2 19 1 4 3 -2 6 -13 5 -11 0 -14 -3 -6 -6z"/>
</g>
</svg>
