<?xml version="1.0" standalone="no"?>
<!DOCTYPE svg PUBLIC "-//W3C//DTD SVG 20010904//EN"
 "http://www.w3.org/TR/2001/REC-SVG-20010904/DTD/svg10.dtd">
<svg version="1.0" xmlns="http://www.w3.org/2000/svg"
 width="500.000000pt" height="500.000000pt" viewBox="0 0 500.000000 500.000000"
 preserveAspectRatio="xMidYMid meet">
<metadata>
Created by potrace 1.14, written by Peter Selinger 2001-2017
</metadata>
<g transform="translate(0.000000,500.000000) scale(0.100000,-0.100000)"
fill="#000000" stroke="none">
<path d="M2176 4685 c-269 -41 -444 -94 -671 -205 -432 -210 -803 -585 -1010
-1021 -243 -515 -280 -1117 -100 -1655 235 -706 811 -1245 1527 -1429 242 -62
301 -70 543 -69 387 0 669 62 990 219 530 258 934 720 1121 1280 256 769 64
1639 -490 2223 -265 279 -660 511 -1033 607 -186 48 -326 67 -528 71 -164 3
-212 0 -349 -21z m614 -300 c561 -100 1026 -407 1311 -865 377 -607 383 -1396
15 -1999 -458 -752 -1349 -1092 -2190 -836 -310 94 -561 247 -796 484 -280
282 -448 607 -522 1011 -30 164 -30 484 0 650 96 527 386 973 822 1262 325
215 699 323 1095 314 98 -3 210 -11 265 -21z"/>
<path d="M1920 3584 c-365 -45 -622 -203 -779 -479 -56 -97 -106 -243 -126
-365 -19 -123 -20 -376 0 -497 74 -454 358 -748 788 -813 103 -15 321 -15 422
0 111 17 195 44 300 98 121 62 250 189 312 307 74 142 109 327 92 497 -15 155
-60 249 -154 320 -75 57 -131 73 -257 73 -60 0 -108 3 -108 6 0 3 13 38 29 76
89 217 245 357 443 399 96 21 240 14 327 -16 273 -92 427 -379 408 -760 -18
-341 -179 -572 -452 -646 -34 -9 -119 -18 -197 -21 l-138 -6 0 -47 c0 -26 -3
-95 -7 -155 l-6 -108 184 6 c217 6 291 22 444 97 265 129 430 364 492 701 23
129 23 398 -1 534 -23 132 -81 303 -137 401 -55 98 -188 236 -279 288 -140 82
-337 124 -520 112 -425 -28 -725 -283 -889 -759 -33 -97 -95 -337 -88 -343 1
-1 67 -22 146 -47 l143 -45 40 20 c83 43 175 30 220 -32 42 -58 39 -216 -6
-313 -53 -112 -142 -185 -283 -233 -66 -23 -100 -28 -219 -32 -176 -6 -274 12
-390 68 -275 134 -404 500 -313 890 56 241 209 411 431 479 88 26 251 43 349
35 l77 -7 7 152 c4 84 4 155 1 159 -8 7 -253 12 -306 6z"/>
</g>
</svg>
