<?xml version="1.0" standalone="no"?>
<!DOCTYPE svg PUBLIC "-//W3C//DTD SVG 20010904//EN"
 "http://www.w3.org/TR/2001/REC-SVG-20010904/DTD/svg10.dtd">
<svg version="1.0" xmlns="http://www.w3.org/2000/svg"
 width="768.000000pt" height="768.000000pt" viewBox="0 0 768.000000 768.000000"
 preserveAspectRatio="xMidYMid meet">
<metadata>
Created by potrace 1.14, written by Peter Selinger 2001-2017
</metadata>
<g transform="translate(0.000000,768.000000) scale(0.100000,-0.100000)"
fill="#000000" stroke="none">
<path d="M3870 7421 c-57 -18 -244 -128 -755 -445 -55 -35 -134 -82 -175 -106
-41 -24 -230 -139 -420 -255 -190 -116 -444 -271 -565 -345 -121 -73 -276
-168 -345 -210 -69 -43 -215 -131 -325 -196 -110 -65 -217 -134 -237 -152 -21
-19 -51 -62 -68 -96 l-30 -61 2 -1700 3 -1700 27 -46 c42 -71 93 -114 223
-191 213 -125 607 -360 735 -439 123 -75 681 -409 935 -559 72 -43 236 -142
365 -220 618 -376 614 -374 696 -375 52 0 73 6 145 42 46 23 145 80 219 126
113 70 790 478 1275 767 72 43 200 120 285 172 245 149 788 472 865 514 96 52
156 111 191 187 l29 62 0 1670 0 1670 -32 65 c-17 36 -47 79 -65 96 -18 18
-161 110 -318 204 -443 268 -609 370 -683 417 -37 24 -284 175 -550 335 -585
353 -688 415 -981 597 -126 77 -254 150 -283 161 -55 20 -118 24 -163 11z
m261 -707 c282 -173 670 -408 879 -534 268 -160 967 -583 1180 -714 96 -58
183 -116 193 -127 16 -20 17 -105 17 -1478 l0 -1456 -488 -294 c-522 -315
-1169 -705 -1267 -763 -33 -20 -203 -122 -379 -227 -245 -147 -324 -190 -340
-185 -11 4 -95 52 -186 107 -91 55 -309 186 -485 292 -176 105 -471 283 -655
395 -184 111 -416 251 -515 310 -457 273 -542 324 -573 347 l-32 24 0 1452 c0
1288 2 1455 15 1474 19 27 318 214 1040 651 132 80 301 182 375 227 675 409
1007 605 1025 605 13 0 101 -48 196 -106z"/>
<path d="M3988 5483 c7 -3 16 -2 19 1 4 3 -2 6 -13 5 -11 0 -14 -3 -6 -6z"/>
<path d="M4223 5483 c9 -2 23 -2 30 0 6 3 -1 5 -18 5 -16 0 -22 -2 -12 -5z"/>
<path d="M4323 5473 c9 -2 23 -2 30 0 6 3 -1 5 -18 5 -16 0 -22 -2 -12 -5z"/>
<path d="M4378 5463 c6 -2 18 -2 25 0 6 3 1 5 -13 5 -14 0 -19 -2 -12 -5z"/>
<path d="M4130 5456 c-3 -2 -42 -6 -87 -7 -45 -2 -79 -7 -77 -11 3 -4 -5 -8
-18 -8 -44 0 -222 -42 -263 -61 -22 -11 -31 -16 -20 -12 31 11 419 13 515 2
118 -12 267 -46 384 -86 123 -42 317 -140 374 -188 23 -20 46 -34 51 -31 5 4
36 -17 68 -46 109 -97 119 -103 34 -19 -47 47 -122 111 -166 144 -84 63 -275
162 -370 192 -31 9 -54 19 -51 22 10 10 170 -51 283 -107 64 -32 121 -56 127
-53 5 3 6 1 2 -5 -3 -6 -2 -13 4 -17 5 -3 10 -1 10 6 0 7 3 9 8 5 4 -4 7 -13
7 -19 0 -5 10 -11 23 -12 12 -1 36 -12 52 -24 46 -34 35 -7 -12 32 -63 51
-218 150 -225 143 -3 -3 -22 3 -42 13 -115 61 -367 124 -524 132 -26 2 -47 7
-47 12 0 5 -6 4 -14 -2 -10 -9 -15 -9 -18 -1 -2 6 -6 9 -8 6z"/>
<path d="M4428 5453 c7 -3 16 -2 19 1 4 3 -2 6 -13 5 -11 0 -14 -3 -6 -6z"/>
<path d="M4475 5441 c11 -4 36 -11 55 -15 24 -4 29 -3 15 3 -11 4 -36 11 -55
15 -24 4 -29 3 -15 -3z"/>
<path d="M4620 5395 c14 -8 32 -14 40 -14 8 0 0 6 -19 14 -42 19 -54 19 -21 0z"/>
<path d="M4685 5370 c3 -6 12 -10 19 -10 38 0 289 -171 424 -288 43 -37 66
-53 52 -37 -37 46 -152 144 -238 203 -101 70 -273 159 -257 132z"/>
<path d="M3875 5343 c-146 -18 -361 -82 -514 -154 -46 -21 -88 -36 -94 -32 -5
3 -7 1 -4 -5 6 -8 -71 -61 -120 -82 -28 -12 -186 -166 -253 -246 -131 -158
-132 -145 -3 28 43 56 76 108 75 115 -1 6 6 14 17 18 10 3 52 38 93 78 41 40
65 64 53 55 -12 -10 -25 -18 -30 -18 -12 0 -140 -123 -140 -135 0 -5 -29 -46
-65 -90 -36 -44 -73 -92 -83 -105 -11 -16 -16 -18 -13 -7 7 24 -1 21 -15 -4
-8 -15 -8 -19 0 -15 17 11 13 -4 -15 -51 -14 -24 -29 -41 -34 -38 -5 3 -12 0
-16 -6 -4 -8 -3 -9 4 -5 18 11 15 3 -20 -69 -22 -45 -35 -61 -41 -52 -6 8 -7
6 -3 -6 3 -10 -5 -42 -19 -71 -14 -29 -31 -70 -39 -92 -21 -57 -19 -21 4 70
62 244 200 468 421 681 63 60 98 99 79 85 -80 -57 -224 -206 -295 -305 -11
-16 -24 -33 -30 -39 -21 -24 -55 -76 -55 -85 0 -5 -6 -11 -14 -14 -8 -3 -16
-16 -18 -29 -2 -13 -9 -22 -15 -21 -6 1 -14 -4 -17 -13 -3 -9 -2 -12 5 -9 12
8 -18 -66 -33 -80 -6 -5 -3 5 7 23 9 19 14 36 11 39 -3 3 -10 -6 -15 -21 -6
-14 -15 -26 -21 -26 -13 0 -4 40 27 110 l24 54 -26 -24 c-14 -13 -23 -30 -20
-38 2 -7 1 -11 -4 -8 -12 8 -52 -57 -86 -139 -16 -38 -32 -74 -36 -78 -13 -16
28 116 66 213 20 52 39 102 42 110 4 9 -2 6 -15 -6 -29 -30 -76 -117 -108
-199 -15 -38 -32 -74 -39 -80 -30 -26 -75 -285 -84 -480 -17 -411 62 -723 261
-1026 118 -180 348 -384 543 -481 253 -127 581 -195 820 -171 50 5 88 4 103
-2 19 -9 11 -13 -60 -28 -46 -10 -129 -24 -186 -31 -57 -8 -106 -16 -109 -19
-31 -31 294 -19 451 17 207 48 436 137 405 158 -10 7 -8 8 8 3 23 -6 123 39
123 55 0 4 8 7 18 6 11 0 16 5 14 16 -2 12 3 15 20 11 18 -4 20 -3 8 6 -14 10
-7 16 13 12 5 -1 6 3 3 8 -4 5 -2 12 4 16 5 3 10 1 10 -6 0 -7 8 -5 20 6 11
10 20 22 20 27 0 10 61 67 73 68 16 0 179 186 268 306 46 62 121 184 113 184
-3 0 3 12 13 27 10 16 25 42 32 58 7 17 19 42 26 57 8 15 23 63 35 105 12 43
24 85 27 93 11 26 13 43 19 130 4 47 11 92 16 100 6 10 8 -3 5 -39 -3 -36 -1
-48 5 -37 5 9 8 84 6 166 -2 83 0 150 4 150 6 0 24 -195 20 -213 -1 -4 5 -10
13 -13 8 -3 13 -10 10 -14 -3 -5 -1 -11 5 -15 6 -4 10 7 11 27 1 50 5 81 13
103 7 16 6 17 -3 5 -9 -12 -11 0 -9 53 2 37 -1 67 -5 67 -5 0 -5 21 -1 46 4
29 3 45 -3 41 -5 -3 -15 22 -22 56 -78 381 -333 746 -689 986 -163 110 -394
196 -593 221 -79 9 -288 12 -354 3z m-58 -49 c-3 -3 -12 -4 -19 -1 -8 3 -5 6
6 6 11 1 17 -2 13 -5z m-124 -11 c-7 -2 -19 -2 -25 0 -7 3 -2 5 12 5 14 0 19
-2 13 -5z m814 -109 c-3 -3 -12 -4 -19 -1 -8 3 -5 6 6 6 11 1 17 -2 13 -5z
m-195 -108 c73 -17 205 -67 245 -94 15 -9 34 -16 44 -14 24 4 182 -105 268
-184 88 -82 186 -205 237 -299 48 -89 41 -83 -37 35 -75 113 -263 303 -380
385 -106 75 -111 69 -8 -9 91 -69 182 -157 185 -180 1 -7 23 -39 48 -71 44
-54 59 -75 115 -167 39 -64 15 -42 -34 32 -65 98 -75 97 -13 -2 86 -139 151
-299 178 -440 13 -63 31 -88 25 -33 -4 33 3 32 16 -2 20 -53 30 -252 19 -382
-17 -197 -97 -413 -209 -565 -23 -30 -41 -59 -41 -63 0 -4 -44 -50 -98 -101
-244 -232 -557 -363 -952 -397 -126 -11 -385 31 -545 88 -130 47 -291 142
-385 228 l-45 41 50 -37 c28 -20 75 -54 105 -76 125 -92 314 -166 539 -210
144 -29 361 -21 361 12 0 5 -21 8 -47 8 l-48 -2 40 -7 40 -7 -50 -3 c-181 -11
-349 11 -513 65 -77 26 -213 84 -222 95 -3 4 -12 9 -20 12 -15 5 -172 120
-196 143 -6 5 -26 21 -45 34 -35 24 -76 71 -62 71 4 0 22 -13 38 -28 41 -38
112 -92 119 -92 7 0 20 -10 51 -37 16 -15 29 -17 20 -3 -9 15 4 12 21 -5 12
-11 12 -15 2 -15 -7 0 -2 -7 10 -16 13 -9 28 -14 35 -11 15 5 62 -11 54 -19
-3 -3 -15 -1 -26 6 -12 6 -21 8 -21 6 0 -11 63 -37 76 -32 8 3 13 2 10 -3 -6
-10 42 -33 54 -26 4 3 10 -2 14 -10 3 -8 12 -12 21 -9 8 4 21 1 29 -5 8 -7 18
-11 22 -10 21 4 35 -2 29 -11 -4 -7 3 -8 21 -4 21 5 25 4 19 -6 -6 -10 -3 -12
13 -8 12 4 22 3 22 -1 0 -5 12 -7 28 -7 15 1 36 -2 46 -7 27 -13 275 -17 381
-6 125 13 404 97 391 118 -3 4 11 15 30 26 46 25 44 40 -3 17 -21 -11 -60 -26
-88 -34 -27 -9 -73 -23 -102 -32 -77 -24 -236 -46 -338 -46 -176 0 -370 47
-534 129 -45 23 -81 43 -81 46 0 5 25 -4 100 -37 210 -93 458 -130 703 -103
66 7 240 61 307 95 68 34 161 92 156 98 -3 2 -17 -5 -33 -16 -84 -59 -245
-125 -386 -157 -73 -17 -293 -23 -308 -8 -5 5 33 9 89 10 161 3 308 41 467
121 124 62 198 113 280 195 67 67 67 67 10 17 -174 -155 -360 -247 -570 -285
-67 -12 -257 -6 -346 10 -88 17 -223 58 -249 76 -11 8 -8 9 15 5 26 -5 24 -3
-12 15 -23 11 -40 26 -38 32 3 7 -27 30 -67 52 -106 59 -187 124 -258 207
-115 133 -188 260 -238 419 -47 146 -55 212 -49 393 4 131 10 178 31 253 31
114 72 204 131 292 50 77 180 205 199 198 7 -3 37 14 67 38 53 41 148 98 199
117 36 13 18 0 -97 -75 -56 -36 -135 -98 -175 -138 -65 -65 -65 -71 2 -11 89
81 277 180 422 221 107 31 263 56 295 48 12 -3 10 -5 -8 -6 -122 -5 -399 -85
-399 -114 0 -6 -3 -8 -6 -4 -3 3 -24 -5 -45 -19 -21 -13 -43 -24 -48 -24 -17
0 -154 -104 -220 -169 l-66 -63 73 63 c40 35 98 81 130 102 31 22 59 42 62 45
3 4 10 7 15 7 22 2 154 73 147 80 -4 5 1 5 11 2 10 -4 16 -3 13 2 -7 11 41 24
54 16 6 -4 10 -1 10 5 0 7 9 9 23 5 17 -5 18 -4 7 4 -11 7 -6 10 20 10 49 0
70 3 65 11 -6 10 55 13 240 13 143 0 183 -3 250 -21 116 -32 285 -120 385
-201 47 -38 88 -67 92 -65 4 2 10 -1 14 -7 4 -8 3 -9 -4 -5 -7 4 -12 3 -12 -1
0 -13 75 -84 81 -78 3 3 6 -1 6 -7 0 -7 17 -38 38 -68 81 -118 148 -293 170
-449 7 -48 13 -70 14 -50 2 55 -27 205 -54 283 -27 77 -17 78 14 1 20 -50 30
-50 11 1 -6 15 -9 29 -7 31 7 6 58 -145 73 -216 19 -89 19 -308 -1 -424 -26
-147 -46 -212 -100 -323 -17 -35 -27 -60 -23 -58 5 3 20 28 34 56 31 62 43 57
15 -6 -11 -25 -17 -46 -13 -46 4 0 2 -4 -5 -8 -6 -4 -26 -33 -45 -64 -58 -100
-93 -147 -111 -153 -9 -4 -15 -10 -12 -14 5 -8 -81 -97 -144 -148 -18 -16 -50
-42 -70 -59 -20 -18 -76 -53 -126 -79 -94 -50 -129 -73 -83 -56 112 42 286
159 390 261 190 186 308 397 357 631 21 101 31 125 31 76 0 -54 -33 -180 -84
-322 -4 -11 2 -3 14 18 32 58 79 203 95 296 19 108 19 294 0 407 -56 323 -246
629 -497 802 -95 65 -113 69 -27 5 72 -52 215 -187 232 -218 9 -19 9 -19 -8
-5 -11 8 -37 33 -60 54 -76 74 -213 173 -302 218 -103 53 -254 104 -356 119
-120 18 -140 27 -52 23 73 -3 76 -2 35 7 -25 6 -112 8 -195 7 -96 -3 -137 -1
-115 5 19 4 103 10 185 12 129 3 165 1 260 -19 61 -13 127 -31 149 -41 21 -9
40 -14 43 -12 6 7 -121 51 -207 72 -49 12 -133 21 -240 25 -142 5 -156 7 -100
13 143 16 298 10 412 -17z m373 24 c3 -5 1 -10 -4 -10 -6 0 -11 5 -11 10 0 6
2 10 4 10 3 0 8 -4 11 -10z m55 -32 c0 -5 8 -8 18 -9 9 0 12 -3 5 -6 -7 -2
-24 4 -37 14 -30 21 -35 39 -6 21 11 -7 20 -16 20 -20z m111 5 c13 -17 13 -17
-6 -3 -11 8 -22 16 -24 17 -2 2 0 3 6 3 6 0 17 -8 24 -17z m-36 -53 c-3 -5 2
-10 11 -10 10 0 15 -3 11 -6 -9 -9 -48 6 -42 17 4 5 11 9 16 9 6 0 7 -4 4 -10z
m75 -58 c0 3 13 -6 30 -20 16 -14 27 -28 24 -31 -3 -3 -8 -1 -12 5 -4 6 -22
19 -39 29 -18 11 -33 26 -33 35 1 12 4 11 15 -4 8 -11 15 -17 15 -14z m-953
-38 c-3 -3 -12 -4 -19 -1 -8 3 -5 6 6 6 11 1 17 -2 13 -5z m60 0 c-3 -3 -12
-4 -19 -1 -8 3 -5 6 6 6 11 1 17 -2 13 -5z m979 -39 c9 -8 11 -15 6 -15 -5 0
-15 7 -22 15 -7 8 -9 15 -6 15 4 0 14 -7 22 -15z m39 -25 c-3 -5 1 -10 9 -10
10 0 13 -6 10 -15 -5 -11 -2 -14 12 -9 11 4 16 4 12 -1 -4 -4 -2 -15 5 -24 11
-14 10 -15 -8 -1 -33 25 -63 58 -57 64 9 10 23 6 17 -4z m-270 -300 c3 -5 1
-10 -4 -10 -6 0 -11 5 -11 10 0 6 2 10 4 10 3 0 8 -4 11 -10z m610 -213 c20
-49 35 -90 33 -92 -2 -3 -22 37 -44 87 -49 115 -49 115 -37 103 6 -5 27 -50
48 -98z m102 -429 c-3 -8 -6 -5 -6 6 -1 11 2 17 5 13 3 -3 4 -12 1 -19z m-205
-451 c-20 -88 -53 -201 -68 -229 -9 -16 -13 -32 -10 -35 3 -3 10 5 15 18 5 13
21 50 35 82 29 64 31 71 16 62 -6 -3 -7 1 -3 10 5 14 8 14 15 3 7 -9 8 -3 4
17 -5 22 -4 26 4 15 8 -12 10 -10 11 10 0 14 3 20 5 13 6 -14 -19 -116 -51
-205 -107 -300 -358 -564 -675 -712 -89 -41 -216 -89 -284 -107 -39 -10 -45
-14 -30 -20 14 -6 15 -8 4 -8 -9 -1 -20 3 -25 8 -15 13 -77 -7 -69 -22 5 -9 3
-9 -7 1 -7 6 -27 12 -43 13 l-31 1 30 8 c17 4 66 15 109 25 88 18 240 76 338
128 124 66 421 297 404 315 -3 3 -36 -24 -73 -59 -150 -141 -398 -275 -623
-337 -209 -58 -440 -69 -635 -32 -58 12 -116 18 -128 15 -18 -5 -19 -4 -7 5
12 9 10 10 -12 6 -14 -3 -37 -1 -50 4 -20 9 -18 9 12 5 26 -4 30 -3 15 4 -46
21 -175 59 -170 50 32 -51 -283 147 -385 241 l-55 52 61 -46 c33 -25 70 -55
81 -65 11 -11 24 -17 27 -14 3 4 6 1 6 -5 0 -7 3 -11 8 -10 4 1 40 -17 79 -41
147 -88 366 -165 553 -196 318 -51 677 23 960 197 142 88 310 246 411 388 93
129 184 336 225 510 8 34 8 34 12 7 2 -15 -1 -47 -6 -70z m-2491 -354 c13 -16
12 -17 -3 -4 -17 13 -22 21 -14 21 2 0 10 -8 17 -17z m60 -51 c2 2 1 -1 -3 -6
-8 -10 -38 11 -38 27 0 5 8 3 18 -6 10 -10 21 -16 23 -15z m32 -52 c9 -11 13
-20 8 -20 -4 0 -16 9 -26 20 -10 11 -14 20 -9 20 5 0 17 -9 27 -20z m467 -510
c8 -5 11 -10 5 -10 -5 0 -17 5 -25 10 -8 5 -10 10 -5 10 6 0 17 -5 25 -10z"/>
<path d="M4240 4991 c41 -11 77 -18 79 -16 4 5 -65 23 -114 29 -22 3 -6 -3 35
-13z"/>
<path d="M4360 4955 c46 -18 64 -17 25 0 -16 8 -37 14 -45 14 -8 0 1 -7 20
-14z"/>
<path d="M4480 4955 c14 -8 30 -14 35 -14 6 0 -1 6 -15 14 -14 8 -29 14 -35
14 -5 0 1 -6 15 -14z"/>
<path d="M3115 4660 c-27 -27 -47 -50 -44 -50 3 0 29 23 58 50 29 28 49 50 44
50 -5 0 -31 -22 -58 -50z"/>
<path d="M3810 4624 c-339 -66 -586 -305 -647 -627 -21 -112 -13 -286 17 -382
108 -342 394 -555 745 -557 136 0 231 23 365 88 82 40 108 60 190 143 98 99
137 160 180 286 31 92 50 290 34 353 l-6 22 -394 0 -394 0 0 -155 0 -155 220
0 c124 0 220 -4 220 -9 0 -18 -72 -117 -108 -149 -140 -124 -354 -147 -532
-57 -101 51 -188 169 -219 298 -19 80 -15 199 9 272 62 187 218 309 411 322
134 10 257 -36 359 -133 l57 -54 79 78 c43 43 95 91 114 106 l35 29 -77 71
c-86 81 -208 153 -313 187 -54 17 -99 22 -195 25 -69 1 -136 0 -150 -2z"/>
<path d="M3071 4487 c-13 -21 -12 -21 5 -5 10 10 16 20 13 22 -3 3 -11 -5 -18
-17z"/>
<path d="M3036 4443 c-6 -14 -5 -15 5 -6 7 7 10 15 7 18 -3 3 -9 -2 -12 -12z"/>
<path d="M4992 3800 c0 -14 2 -19 5 -12 2 6 2 18 0 25 -3 6 -5 1 -5 -13z"/>
<path d="M4529 2903 c-13 -16 -12 -17 4 -4 16 13 21 21 13 21 -2 0 -10 -8 -17
-17z"/>
<path d="M4260 2620 c-8 -5 -10 -10 -5 -10 6 0 17 5 25 10 8 5 11 10 5 10 -5
0 -17 -5 -25 -10z"/>
<path d="M4090 2570 c-20 -6 -21 -8 -5 -8 11 0 29 3 40 8 25 11 -1 11 -35 0z"/>
<path d="M4038 2553 c7 -3 16 -2 19 1 4 3 -2 6 -13 5 -11 0 -14 -3 -6 -6z"/>
<path d="M5142 3138 c-12 -23 -20 -43 -18 -46 3 -2 14 15 26 38 28 55 21 61
-8 8z"/>
<path d="M5100 3060 c-6 -11 -8 -20 -6 -20 3 0 10 9 16 20 6 11 8 20 6 20 -3
0 -10 -9 -16 -20z"/>
<path d="M5069 3013 c-13 -16 -12 -17 4 -4 16 13 21 21 13 21 -2 0 -10 -8 -17
-17z"/>
<path d="M5040 2975 c-7 -9 -8 -15 -2 -15 5 0 12 7 16 15 3 8 4 15 2 15 -2 0
-9 -7 -16 -15z"/>
<path d="M4972 2889 c-13 -16 -20 -29 -15 -29 9 1 47 50 41 54 -1 2 -13 -10
-26 -25z"/>
<path d="M3230 2530 c8 -5 20 -10 25 -10 6 0 3 5 -5 10 -8 5 -19 10 -25 10 -5
0 -3 -5 5 -10z"/>
<path d="M3310 5261 c-25 -16 -61 -43 -80 -60 -19 -17 1 -6 45 25 44 31 82 58
84 60 12 11 -8 1 -49 -25z"/>
<path d="M3169 5153 c-13 -16 -12 -17 4 -4 16 13 21 21 13 21 -2 0 -10 -8 -17
-17z"/>
<path d="M5075 5080 c10 -11 20 -20 23 -20 3 0 -3 9 -13 20 -10 11 -20 20 -23
20 -3 0 3 -9 13 -20z"/>
<path d="M2914 4938 l-19 -23 23 19 c21 18 27 26 19 26 -2 0 -12 -10 -23 -22z"/>
<path d="M5215 4850 c21 -22 41 -40 43 -40 9 0 -63 78 -73 79 -5 1 9 -17 30
-39z"/>
<path d="M5291 4760 c40 -55 55 -72 41 -45 -6 11 -25 36 -42 55 l-32 35 33
-45z"/>
<path d="M2737 4693 c-4 -3 -7 -11 -7 -17 0 -6 5 -5 12 2 6 6 9 14 7 17 -3 3
-9 2 -12 -2z"/>
<path d="M2690 4609 c-7 -11 -10 -23 -7 -25 2 -2 9 7 15 21 14 30 7 33 -8 4z"/>
<path d="M2331 4064 c0 -11 3 -14 6 -6 3 7 2 16 -1 19 -3 4 -6 -2 -5 -13z"/>
<path d="M5552 3920 c0 -19 2 -27 5 -17 2 9 2 25 0 35 -3 9 -5 1 -5 -18z"/>
<path d="M2322 3900 c0 -14 2 -19 5 -12 2 6 2 18 0 25 -3 6 -5 1 -5 -13z"/>
<path d="M5463 3615 c0 -22 2 -30 4 -17 2 12 2 30 0 40 -3 9 -5 -1 -4 -23z"/>
<path d="M4979 2623 c-13 -16 -12 -17 4 -4 9 7 17 15 17 17 0 8 -8 3 -21 -13z"/>
<path d="M4929 2583 c-13 -16 -12 -17 4 -4 16 13 21 21 13 21 -2 0 -10 -8 -17
-17z"/>
<path d="M4650 2410 c-19 -11 -31 -19 -27 -20 11 0 67 29 67 35 0 7 -1 7 -40
-15z"/>
<path d="M4480 2339 c-64 -25 -133 -44 -150 -41 -3 0 -9 -3 -15 -8 -5 -4 -32
-11 -60 -15 -27 -5 -57 -10 -65 -12 -8 -2 -31 -6 -50 -9 -42 -5 -65 -13 -58
-19 4 -4 62 4 143 20 108 22 325 91 344 111 10 9 -19 1 -89 -27z"/>
<path d="M4018 2353 c6 -2 18 -2 25 0 6 3 1 5 -13 5 -14 0 -19 -2 -12 -5z"/>
<path d="M4370 2340 c-13 -9 -13 -10 0 -10 8 0 22 5 30 10 13 9 13 10 0 10 -8
0 -22 -5 -30 -10z"/>
<path d="M4243 2306 c-28 -6 -55 -15 -60 -19 -4 -5 6 -6 22 -2 71 16 105 26
105 30 0 6 -1 6 -67 -9z"/>
<path d="M4090 2274 l-55 -13 49 5 c27 3 58 9 70 14 31 13 -1 10 -64 -6z"/>
<path d="M3958 2253 c7 -3 16 -2 19 1 4 3 -2 6 -13 5 -11 0 -14 -3 -6 -6z"/>
<path d="M3990 2230 l-55 -7 50 -1 c28 0 59 3 70 8 23 10 14 10 -65 0z"/>
</g>
</svg>
