<?xml version="1.0" standalone="no"?>
<!DOCTYPE svg PUBLIC "-//W3C//DTD SVG 20010904//EN"
 "http://www.w3.org/TR/2001/REC-SVG-20010904/DTD/svg10.dtd">
<svg version="1.0" xmlns="http://www.w3.org/2000/svg"
 width="512.000000pt" height="512.000000pt" viewBox="0 0 512.000000 512.000000"
 preserveAspectRatio="xMidYMid meet">
<metadata>
Created by potrace 1.14, written by Peter Selinger 2001-2017
</metadata>
<g transform="translate(0.000000,512.000000) scale(0.100000,-0.100000)"
fill="#000000" stroke="none">
<path d="M2335 4838 c-615 -62 -1207 -396 -1577 -889 -242 -323 -376 -641
-444 -1054 -26 -155 -26 -505 0 -660 22 -139 47 -247 82 -355 250 -795 914
-1392 1726 -1554 757 -151 1522 83 2069 634 291 294 506 682 599 1085 44 189
55 294 55 520 0 226 -11 331 -55 520 -131 564 -485 1072 -970 1389 -438 288
-964 417 -1485 364z m-13 -1348 c-2 -69 -5 -141 -8 -160 l-5 -35 -157 0 c-179
-1 -249 -15 -372 -72 -57 -27 -93 -54 -150 -112 -132 -132 -188 -279 -197
-512 -4 -83 -1 -162 6 -205 39 -227 153 -404 315 -486 104 -53 193 -70 356
-71 230 -1 345 37 461 153 88 87 112 148 113 280 1 106 -13 143 -64 174 -40
23 -120 21 -174 -6 l-45 -21 -138 43 c-76 24 -142 47 -147 52 -24 20 72 354
145 507 147 310 352 495 634 573 68 18 107 22 260 22 160 1 189 -2 260 -22
344 -99 557 -379 621 -814 20 -139 15 -421 -11 -538 -103 -470 -426 -744 -905
-767 -69 -3 -146 -3 -171 1 l-45 7 3 97 c2 53 6 124 9 157 l5 60 112 1 c282 2
472 102 575 303 71 138 93 236 93 424 0 372 -161 629 -438 702 -74 20 -241 20
-313 1 -179 -47 -308 -159 -394 -341 -19 -39 -38 -83 -41 -97 l-6 -25 93 1
c204 1 343 -95 401 -279 29 -92 31 -324 4 -424 -43 -160 -103 -266 -207 -371
-159 -158 -355 -235 -630 -247 -304 -13 -559 61 -747 217 -255 211 -381 604
-332 1037 48 432 283 741 663 868 125 42 216 54 401 52 l170 -2 -3 -125z"/>
</g>
</svg>
